HIERARCHY
ROOT Hips
{
	OFFSET 0.00000 0.00000 0.00000
	CHANNELS 6 Xposition Yposition Zposition Zrotation Yrotation Xrotation 
	JOINT LHipJoint
	{
		OFFSET 0 0 0
		CHANNELS 3 Zrotation Yrotation Xrotation
		JOINT LeftHip
		{
			OFFSET 1.77779 -1.88989 0.48267
			CHANNELS 3 Zrotation Yrotation Xrotation
			JOINT LeftKnee
			{
				OFFSET 2.53442 -6.96327 0.00000
				CHANNELS 3 Zrotation Yrotation Xrotation
				JOINT LeftAnkle
				{
					OFFSET 2.71068 -7.44755 0.00000
					CHANNELS 3 Zrotation Yrotation Xrotation
					JOINT LeftToe
					{
						OFFSET 0.17992 -0.49431 2.22524
						CHANNELS 3 Zrotation Yrotation Xrotation
						End Site
						{
							OFFSET 0.00000 -0.00000 1.14687
						}
					}
				}
			}
		}
	}
	JOINT RHipJoint
	{
		OFFSET 0 0 0
		CHANNELS 3 Zrotation Yrotation Xrotation
		JOINT RightHip
		{
			OFFSET -1.58469 -1.88989 0.48267
			CHANNELS 3 Zrotation Yrotation Xrotation
			JOINT RightKnee
			{
				OFFSET -2.60386 -7.15404 0.00000
				CHANNELS 3 Zrotation Yrotation Xrotation
				JOINT RightAnkle
				{
					OFFSET -2.73334 -7.50979 0.00000
					CHANNELS 3 Zrotation Yrotation Xrotation
					JOINT RightToe
					{
						OFFSET -0.25618 -0.70384 2.21822
						CHANNELS 3 Zrotation Yrotation Xrotation
						End Site
						{
							OFFSET -0.00000 -0.00000 1.16381
						}
					}
				}
			}
		}
	}
	JOINT lowerback
	{
		OFFSET 0 0 0
		CHANNELS 3 Zrotation Yrotation Xrotation
		JOINT Chest
		{
			OFFSET 0.03410 2.01612 -0.22230
			CHANNELS 3 Zrotation Yrotation Xrotation
			JOINT Chest2
			{
				OFFSET 0.03465 2.03012 0.00937
				CHANNELS 3 Zrotation Yrotation Xrotation
				JOINT lowerneck
				{
					OFFSET 0 0 0
					CHANNELS 3 Zrotation Yrotation Xrotation
					JOINT Neck
					{
						OFFSET -0.00219 1.70459 0.20857
						CHANNELS 3 Zrotation Yrotation Xrotation
						JOINT Head
						{
							OFFSET 0.02518 1.72339 -0.22179
							CHANNELS 3 Zrotation Yrotation Xrotation
							End Site
							{
								OFFSET 0.00282 1.74122 -0.09823
							}
						}
					}
				}
				JOINT LeftCollar
				{
					OFFSET 0 0 0
					CHANNELS 3 Zrotation Yrotation Xrotation
					JOINT LeftShoulder
					{
						OFFSET 3.36358 1.00547 -0.37661
CHANNELS 3 Zrotation Xrotation Yrotation
						JOINT LeftElbow
						{
OFFSET 0 -5.065070 0.000000
CHANNELS 3 Zrotation Xrotation Yrotation
							JOINT LeftWrist
							{
OFFSET 0 -3.601960 0.000000
CHANNELS 3 Zrotation Xrotation Yrotation
								JOINT lhand
								{
									OFFSET 0 0 0
CHANNELS 3 Zrotation Xrotation Yrotation
									JOINT LFingers
									{
OFFSET 0 -0.450350 0.000000
CHANNELS 3 Zrotation Xrotation Yrotation
										End Site
										{
OFFSET 0 -0.363080 0.000000
										}
									}
								}
								JOINT LThumb
								{
OFFSET 0 0.000000 0.000000
CHANNELS 3 Zrotation Xrotation Yrotation
									End Site
									{
OFFSET 0 -0.368620 0.368620
									}
								}
							}
						}
					}
				}
				JOINT RightCollar
				{
					OFFSET 0 0 0
					CHANNELS 3 Zrotation Yrotation Xrotation
					JOINT RightShoulder
					{
						OFFSET -3.50159 0.80383 -0.71526
CHANNELS 3 Zrotation Xrotation Yrotation
						JOINT RightElbow
						{
OFFSET 0 -5.363940 0.000000
CHANNELS 3 Zrotation Xrotation Yrotation
							JOINT RightWrist
							{
OFFSET 0 -3.580350 0.000000
CHANNELS 3 Zrotation Xrotation Yrotation
								JOINT rhand
								{
									OFFSET 0 0 0
CHANNELS 3 Zrotation Xrotation Yrotation
									JOINT RFingers
									{
OFFSET 0 -0.663750 0.000000
CHANNELS 3 Zrotation Xrotation Yrotation
										End Site
										{
OFFSET 0 -0.535130 0.000000
										}
									}
								}
								JOINT RThumb
								{
OFFSET 0 0.000000 0.000000
CHANNELS 3 Zrotation Xrotation Yrotation
									End Site
									{
OFFSET 0 -0.543300 0.543300
									}
								}
							}
						}
					}
				}
			}
		}
	}
}
MOTION
Frames: 10
Frame Time: 0.008333333333333333
-0.647300 17.247800 -27.802000 2.157300 1.486900 0.820500 0.000000 0.000000 0.000000 -27.825700 -3.561800 -10.032000 5.091500 13.486100 41.216400 1.502900 -8.588900 -21.950800 0.174700 -2.692700 -7.424300 0.000000 0.000000 0.000000 15.520400 7.474600 -35.669400 -28.591900 -18.129000 115.900300 -0.451200 -6.967300 12.189400 -0.112800 -2.165500 5.963400 -2.046800 1.852300 18.830000 -0.567300 1.942400 0.155900 0.009900 1.005700 -10.473000 -2.315500 -4.313900 -18.399800 5.403900 -5.885800 7.634800 1.495300 -2.529200 5.508100 -0.000000 0.000000 0.000000 3.642100 6.952500 -41.199300 127.582300 -53.925300 91.883200 23.931500 -34.242900 -0.994700 0.000000 0.000000 0.000000 -7.125000 0.000000 0.000000 -2.102400 31.064100 -0.716500 -0.000000 0.000000 0.000000 -3.527900 24.575600 41.951400 -104.906800 -59.143500 -72.872600 -22.416700 -28.890200 -37.629800 0.000000 0.000000 0.000000 7.125000 0.000000 -0.000000 6.212000 -9.639200 7.203300
-0.647254 17.247914 -27.695007 2.217315 1.544993 0.904324 0.000000 0.000000 0.000000 -27.937656 -3.537053 -9.611463 5.052070 13.441729 41.046099 1.493065 -8.482228 -21.875141 0.199836 -2.861514 -7.894583 0.000000 0.000000 0.000000 15.342140 7.534340 -36.365264 -28.547209 -18.149356 115.756965 -0.448364 -6.809578 12.129294 -0.107425 -2.110952 5.812563 -2.157178 1.779432 18.835626 -0.523524 1.825115 0.058879 0.151246 0.958859 -10.586648 -2.350493 -4.264246 -18.134400 5.352211 -5.806230 7.580526 1.497107 -2.500954 5.444769 0.000000 0.000000 0.000000 3.497758 6.617799 -41.111588 127.708665 -53.878482 91.985184 23.815633 -33.899851 -1.009429 0.000000 0.000000 0.000000 -7.125000 0.000000 0.000000 -2.195212 31.078806 -0.747285 0.000000 0.000000 0.000000 -3.637660 25.048078 41.989092 -105.330448 -59.090484 -73.235844 -22.440692 -28.995820 -37.827844 0.000000 0.000000 0.000000 7.125000 0.000000 0.000000 6.237067 -9.842642 7.250873
-0.647209 17.248029 -27.588015 2.277329 1.603087 0.988148 0.000000 0.000000 0.000000 -28.049612 -3.512306 -9.190925 5.012639 13.397359 40.875798 1.483231 -8.375555 -21.799482 0.224971 -3.030328 -8.364866 0.000000 0.000000 0.000000 15.163880 7.594080 -37.061128 -28.502518 -18.169711 115.613629 -0.445528 -6.651857 12.069188 -0.102050 -2.056403 5.661726 -2.267555 1.706563 18.841253 -0.479748 1.707830 -0.038141 0.292591 0.912019 -10.700296 -2.385487 -4.214592 -17.868999 5.300521 -5.726660 7.526252 1.498914 -2.472708 5.381438 0.000000 0.000000 0.000000 3.353417 6.283098 -41.023876 127.835030 -53.831664 92.087168 23.699766 -33.556802 -1.024158 0.000000 0.000000 0.000000 -7.125000 0.000000 0.000000 -2.288025 31.093513 -0.778070 0.000000 0.000000 0.000000 -3.747420 25.520557 42.026784 -105.754096 -59.037468 -73.599089 -22.464684 -29.101441 -38.025888 0.000000 0.000000 0.000000 7.125000 0.000000 0.000000 6.262134 -10.046083 7.298445
-0.647163 17.248143 -27.481022 2.337344 1.661180 1.071972 0.000000 0.000000 0.000000 -28.161567 -3.487559 -8.770388 4.973209 13.352988 40.705497 1.473396 -8.268883 -21.723824 0.250107 -3.199143 -8.835148 0.000000 0.000000 0.000000 14.985620 7.653821 -37.756992 -28.457828 -18.190067 115.470294 -0.442692 -6.494135 12.009081 -0.096676 -2.001855 5.510888 -2.377933 1.633695 18.846879 -0.435972 1.590546 -0.135162 0.433937 0.865178 -10.813945 -2.420480 -4.164938 -17.603599 5.248832 -5.647091 7.471978 1.500721 -2.444461 5.318107 0.000000 0.000000 0.000000 3.209075 5.948397 -40.936164 127.961394 -53.784846 92.189151 23.583900 -33.213753 -1.038888 0.000000 0.000000 0.000000 -7.125000 0.000000 0.000000 -2.380837 31.108219 -0.808855 0.000000 0.000000 0.000000 -3.857180 25.993035 42.064476 -106.177744 -58.984452 -73.962333 -22.488676 -29.207061 -38.223932 0.000000 0.000000 0.000000 7.125000 0.000000 0.000000 6.287201 -10.249525 7.346018
-0.647117 17.248257 -27.374029 2.397359 1.719274 1.155795 0.000000 0.000000 0.000000 -28.273523 -3.462812 -8.349850 4.933778 13.308618 40.535197 1.463561 -8.162210 -21.648165 0.275243 -3.367957 -9.305431 0.000000 0.000000 0.000000 14.807360 7.713561 -38.452856 -28.413137 -18.210422 115.326958 -0.439856 -6.336414 11.948975 -0.091301 -1.947306 5.360051 -2.488311 1.560826 18.852506 -0.392196 1.473261 -0.232183 0.575282 0.818337 -10.927593 -2.455473 -4.115284 -17.338199 5.197142 -5.567521 7.417704 1.502527 -2.416215 5.254776 0.000000 0.000000 0.000000 3.064733 5.613697 -40.848452 128.087759 -53.738029 92.291135 23.468033 -32.870704 -1.053617 0.000000 0.000000 0.000000 -7.125000 0.000000 0.000000 -2.473649 31.122925 -0.839640 0.000000 0.000000 0.000000 -3.966940 26.465514 42.102169 -106.601392 -58.931436 -74.325578 -22.512669 -29.312681 -38.421976 0.000000 0.000000 0.000000 7.125000 0.000000 0.000000 6.312268 -10.452966 7.393590
-0.646152 17.254043 -27.263160 2.430769 1.798257 1.233159 0.000000 0.000000 0.000000 -28.351883 -3.444483 -7.899766 4.889280 13.257513 40.340962 1.443820 -8.060907 -21.496456 0.305418 -3.542155 -9.793115 0.000000 0.000000 0.000000 14.686055 7.742160 -39.049396 -28.328633 -18.247389 115.057724 -0.431865 -6.192145 11.824620 -0.081590 -1.825236 5.023302 -2.587992 1.457980 18.852690 -0.315700 1.321332 -0.390538 0.757202 0.758345 -11.105031 -2.547494 -4.046478 -16.813707 5.152746 -5.455676 7.308959 1.522410 -2.377617 5.133255 0.000000 0.000000 0.000000 2.849007 5.556708 -40.670433 128.351997 -53.636754 92.503555 23.401857 -32.602916 -1.000077 0.000000 0.000000 0.000000 -7.125000 0.000000 0.000000 -2.524510 31.063936 -0.860705 0.000000 0.000000 0.000000 -4.192133 27.038134 42.257260 -107.059985 -58.868844 -74.718068 -22.567098 -29.483197 -38.566151 0.000000 0.000000 0.000000 7.125000 0.000000 0.000000 6.311909 -10.609890 7.406849
-0.644643 17.263191 -27.149992 2.448403 1.889629 1.306690 0.000000 0.000000 0.000000 -28.410319 -3.429960 -7.432159 4.841776 13.202416 40.132535 1.418204 -7.962789 -21.299647 0.338582 -3.719546 -10.291118 0.000000 0.000000 0.000000 14.598526 7.752292 -39.587035 -28.220520 -18.294207 114.713829 -0.420819 -6.055854 11.662164 -0.069308 -1.663123 4.576302 -2.681330 1.337356 18.849649 -0.219800 1.148858 -0.585265 0.963182 0.690554 -11.320297 -2.673332 -3.966313 -16.135569 5.112675 -5.324691 7.167911 1.553012 -2.332881 4.977226 0.000000 0.000000 0.000000 2.590948 5.664410 -40.438859 128.697996 -53.503184 92.781466 23.365148 -32.379759 -0.906053 0.000000 0.000000 0.000000 -7.125000 0.000000 0.000000 -2.550492 30.961243 -0.876006 0.000000 0.000000 0.000000 -4.485779 27.670141 42.481972 -107.539302 -58.800572 -75.127901 -22.639578 -29.692196 -38.678381 0.000000 0.000000 0.000000 7.125000 0.000000 0.000000 6.296471 -10.739228 7.399759
-0.643133 17.272340 -27.036824 2.466037 1.981000 1.380222 0.000000 0.000000 0.000000 -28.468756 -3.415436 -6.964552 4.794272 13.147319 39.924107 1.392588 -7.864670 -21.102838 0.371745 -3.896937 -10.789121 0.000000 0.000000 0.000000 14.510997 7.762424 -40.124675 -28.112407 -18.341025 114.369934 -0.409772 -5.919563 11.499709 -0.057026 -1.501010 4.129302 -2.774669 1.216732 18.846607 -0.123900 0.976385 -0.779993 1.169162 0.622763 -11.535563 -2.799171 -3.886149 -15.457430 5.072605 -5.193706 7.026862 1.583614 -2.288144 4.821197 0.000000 0.000000 0.000000 2.332890 5.772112 -40.207286 129.043995 -53.369615 93.059377 23.328439 -32.156603 -0.812028 0.000000 0.000000 0.000000 -7.125000 0.000000 0.000000 -2.576474 30.858550 -0.891307 0.000000 0.000000 0.000000 -4.779426 28.302148 42.706684 -108.018619 -58.732301 -75.537735 -22.712057 -29.901195 -38.790612 0.000000 0.000000 0.000000 7.125000 0.000000 0.000000 6.281032 -10.868566 7.392669
-0.641624 17.281489 -26.923656 2.483671 2.072372 1.453754 0.000000 0.000000 0.000000 -28.527192 -3.400913 -6.496945 4.746768 13.092221 39.715680 1.366972 -7.766552 -20.906029 0.404909 -4.074328 -11.287124 0.000000 0.000000 0.000000 14.423468 7.772556 -40.662314 -28.004293 -18.387843 114.026039 -0.398725 -5.783272 11.337253 -0.044744 -1.338897 3.682303 -2.868007 1.096108 18.843565 -0.028000 0.803911 -0.974720 1.375142 0.554972 -11.750829 -2.925010 -3.805984 -14.779291 5.032534 -5.062722 6.885814 1.614216 -2.243408 4.665168 0.000000 0.000000 0.000000 2.074831 5.879813 -39.975712 129.389995 -53.236046 93.337288 23.291731 -31.933446 -0.718004 0.000000 0.000000 0.000000 -7.125000 0.000000 0.000000 -2.602456 30.755857 -0.906608 0.000000 0.000000 0.000000 -5.073073 28.934155 42.931396 -108.497936 -58.664030 -75.947568 -22.784537 -30.110195 -38.902842 0.000000 0.000000 0.000000 7.125000 0.000000 0.000000 6.265594 -10.997905 7.385579
-0.640243 17.293109 -26.808122 2.475075 2.280342 1.563460 0.000000 0.000000 0.000000 -28.536816 -3.477781 -6.035894 4.699235 13.036610 39.506119 1.337721 -7.700424 -20.678275 0.446305 -4.276476 -11.857242 0.000000 0.000000 0.000000 14.380860 7.666575 -41.200730 -27.882758 -18.438950 113.641078 -0.382144 -5.644521 11.086572 -0.033532 -1.141925 3.139780 -2.875149 0.945415 18.776781 0.042506 0.610420 -1.098677 1.510013 0.469237 -11.847136 -2.971915 -3.748871 -14.443826 4.981490 -4.975016 6.835158 1.619231 -2.211654 4.591777 0.000000 0.000000 0.000000 1.882233 5.823366 -39.798380 129.714345 -53.109447 93.597436 23.282817 -31.797316 -0.575943 0.000000 0.000000 0.000000 -7.125000 0.000000 0.000000 -2.605299 30.600998 -0.916592 0.000000 0.000000 0.000000 -5.259195 29.388474 43.058687 -108.943200 -58.599165 -76.328070 -22.815490 -30.299193 -38.990847 0.000000 0.000000 0.000000 7.125000 0.000000 0.000000 6.266815 -11.093049 7.395369
